<svg width="800" height="600" viewBox="0 0 800 600" xmlns="http://www.w3.org/2000/svg">
  <defs>
    <linearGradient id="bg" x1="0" y1="0" x2="1" y2="1">
      <stop offset="0" stop-color="#233D4C"/>
      <stop offset="1" stop-color="#152229"/>
    </linearGradient>
  </defs>
  <rect width="800" height="600" fill="url(#bg)"/>
  <rect x="0" y="470" width="800" height="130" fill="#1C313D"/>
  <g>
    <rect x="240" y="180" width="180" height="290" fill="#1C313D" stroke="#FD802E" stroke-width="4"/>
    <rect x="440" y="250" width="140" height="220" fill="#1C313D" stroke="#FD802E" stroke-width="4"/>
    <g fill="#FFF9EB" opacity="0.8">
      <rect x="265" y="215" width="26" height="26"/>
      <rect x="315" y="215" width="26" height="26"/>
      <rect x="365" y="215" width="26" height="26"/>
      <rect x="265" y="265" width="26" height="26"/>
      <rect x="315" y="265" width="26" height="26"/>
      <rect x="365" y="265" width="26" height="26"/>
      <rect x="265" y="315" width="26" height="26"/>
      <rect x="315" y="315" width="26" height="26"/>
      <rect x="365" y="315" width="26" height="26"/>
      <rect x="465" y="285" width="24" height="24"/>
      <rect x="505" y="285" width="24" height="24"/>
      <rect x="465" y="325" width="24" height="24"/>
      <rect x="505" y="325" width="24" height="24"/>
    </g>
    <rect x="310" y="400" width="60" height="70" fill="#FD802E" opacity="0.9"/>
  </g>
  <text x="60" y="540" font-family="Arial, sans-serif" font-size="13" letter-spacing="3" fill="#FFF9EB" opacity="0.45">DIPON GROUP — REAL ESTATE</text>
</svg>
