<svg width="800" height="600" viewBox="0 0 800 600" xmlns="http://www.w3.org/2000/svg">
  <defs>
    <linearGradient id="bg" x1="0" y1="0" x2="1" y2="1">
      <stop offset="0" stop-color="#233D4C"/>
      <stop offset="1" stop-color="#152229"/>
    </linearGradient>
  </defs>
  <rect width="800" height="600" fill="url(#bg)"/>
  <path d="M0 460 L800 380 L800 600 L0 600 Z" fill="#1C313D"/>
  <g opacity="0.08" stroke="#FFF9EB" stroke-width="1">
    <path d="M0 100 L800 60"/>
    <path d="M0 180 L800 140"/>
  </g>
  <g stroke="#FD802E" stroke-width="6" stroke-linecap="round" stroke-linejoin="round" fill="none">
    <path d="M180 460 L180 200 L470 200"/>
    <path d="M470 200 L470 140"/>
    <path d="M440 170 L500 170"/>
    <line x1="180" y1="300" x2="330" y2="300"/>
  </g>
  <g fill="#FD802E">
    <rect x="330" y="380" width="140" height="80" rx="2" opacity="0.9"/>
    <rect x="490" y="330" width="90" height="130" rx="2" opacity="0.7"/>
  </g>
  <g fill="#FFF9EB" opacity="0.85">
    <rect x="345" y="400" width="24" height="24"/>
    <rect x="385" y="400" width="24" height="24"/>
    <rect x="425" y="400" width="24" height="24"/>
    <rect x="505" y="360" width="20" height="20"/>
    <rect x="540" y="360" width="20" height="20"/>
    <rect x="505" y="400" width="20" height="20"/>
    <rect x="540" y="400" width="20" height="20"/>
  </g>
  <text x="60" y="540" font-family="Arial, sans-serif" font-size="13" letter-spacing="3" fill="#FFF9EB" opacity="0.45">DIPON GROUP — CONSTRUCTION</text>
</svg>
